<?xml version="1.0" standalone="no"?><!DOCTYPE svg PUBLIC "-//W3C//DTD SVG 1.1//EN" "http://www.w3.org/Graphics/SVG/1.1/DTD/svg11.dtd"><svg t="1625996759080" class="icon" viewBox="0 0 1035 1024" version="1.1" xmlns="http://www.w3.org/2000/svg" p-id="1315" xmlns:xlink="http://www.w3.org/1999/xlink" width="202.1484375" height="200"><defs><style type="text/css"></style></defs><path d="M1013.852766 1011.332492a42.225028 42.225028 0 0 1-59.70619 0L702.316509 759.502424a428.900723 428.900723 0 1 1 133.958901-196.00858 41.718328 41.718328 0 0 1-4.919216 14.166497c-1.330088 3.61024-2.385714 7.347155-3.800252 10.91517l-2.385714-2.385714a42.225028 42.225028 0 0 1-72.690386-29.13527l-0.380025-3.905815a41.950565 41.950565 0 0 1 11.379645-28.670794l-3.926928-3.905815a336.976836 336.976836 0 1 0-88.123633 150.764463 6.333754 6.333754 0 0 0 0.612262-0.928951l61.120729 1.055626 145.254096 145.232984 0.274463-0.274463 135.12009 135.12009a42.225028 42.225028 0 0 1 0.042225 59.79064z" p-id="1316" fill="#515151"></path></svg>